# xmcd
#
# Track frame offsets:
#	150
#	13117
#	22215
#	32227
#	43720
#	57110
#	69647
#	82600
#	99362
#	109792
#	122710
#	136432
#
# Disc length: 1976 seconds
#
# Revision: 0
# Processed by: cddbd v1.4PL0 Copyright (c) Steve Scherf et al.
# Submitted via: EasyCDDAExtractor 4.6.9.1
#
DISCID=9c07b60c
DTITLE=Eanes, Jim and Bobby Atkins - Heart Of The South
DYEAR=1991
DGENRE=Bluegrass
TTITLE0=Old Man Joe
TTITLE1=Hide And Seek
TTITLE2=Shop Worn Heart
TTITLE3=Crimes Of The Heart
TTITLE4=DJ's Theme
TTITLE5=Jesus Loves Me
TTITLE6=Don't Sell The Land
TTITLE7=Home In The Southland
TTITLE8=Mr. Bell
TTITLE9=Pike County Breakdown
TTITLE10=Wide Wide Road
TTITLE11=Poison Love
EXTD=
EXTT0=
EXTT1=
EXTT2=
EXTT3=
EXTT4=
EXTT5=
EXTT6=
EXTT7=
EXTT8=
EXTT9=
EXTT10=
EXTT11=
PLAYORDER=
